<svg width="512" height="512" viewBox="0 0 512 512" fill="none" xmlns="http://www.w3.org/2000/svg">
  <defs>
    <radialGradient id="bgGradient" cx="50%" cy="45%" r="75%">
      <stop offset="0%" stop-color="#C8E6C9"/>
      <stop offset="100%" stop-color="#2E7D32"/>
    </radialGradient>
    <linearGradient id="binBodyGradient" x1="0" y1="180" x2="0" y2="370" gradientUnits="userSpaceOnUse">
      <stop stop-color="#F1F8E9"/>
      <stop offset="1" stop-color="#66BB6A"/>
    </linearGradient>
    <linearGradient id="lidGradient" x1="0" y1="148" x2="0" y2="200" gradientUnits="userSpaceOnUse">
      <stop stop-color="#43A047"/>
      <stop offset="1" stop-color="#81C784"/>
    </linearGradient>
    <linearGradient id="handleGradient" x1="0" y1="130" x2="0" y2="162" gradientUnits="userSpaceOnUse">
      <stop stop-color="#fff"/>
      <stop offset="1" stop-color="#B2DFDB"/>
    </linearGradient>
    <linearGradient id="stripeGradient" x1="0" y1="220" x2="0" y2="340" gradientUnits="userSpaceOnUse">
      <stop stop-color="#C8E6C9"/>
      <stop offset="1" stop-color="#388E3C"/>
    </linearGradient>
    <radialGradient id="shadowGradient" cx="50%" cy="50%" r="60%">
      <stop offset="0%" stop-color="#000" stop-opacity="0.22"/>
      <stop offset="100%" stop-color="#000" stop-opacity="0"/>
    </radialGradient>
  </defs>
  <!-- Outline putih -->
  <circle cx="256" cy="256" r="245" fill="#FFF"/>
  <!-- Background gradient -->
  <circle cx="256" cy="256" r="220" fill="url(#bgGradient)"/>
  <!-- Shadow bawah -->
  <ellipse cx="256" cy="430" rx="110" ry="28" fill="url(#shadowGradient)" />
  <!-- Body tempat sampah -->
  <rect x="135" y="180" width="242" height="200" rx="42" fill="url(#binBodyGradient)" stroke="#388E3C" stroke-width="15"/>
  <!-- Tutup tempat sampah -->
  <rect x="120" y="145" width="272" height="56" rx="26" fill="url(#lidGradient)" stroke="#388E3C" stroke-width="11"/>
  <!-- Efek glossy pada tutup -->
  <ellipse cx="190" cy="166" rx="45" ry="13" fill="#fff" opacity="0.18"/>
  <!-- Handle -->
  <rect x="225" y="125" width="62" height="28" rx="14" fill="url(#handleGradient)" stroke="#388E3C" stroke-width="4"/>
  <!-- Highlight glossy pada body -->
  <rect x="155" y="210" width="30" height="120" rx="15" fill="#fff" opacity="0.10"/>
  <ellipse cx="210" cy="250" rx="16" ry="45" fill="#fff" opacity="0.07"/>
  <!-- Stripes detail -->
  <rect x="205" y="235" width="16" height="120" rx="8" fill="url(#stripeGradient)" opacity="0.92"/>
  <rect x="250" y="235" width="16" height="120" rx="8" fill="url(#stripeGradient)" opacity="0.99"/>
  <rect x="295" y="235" width="16" height="120" rx="8" fill="url(#stripeGradient)" opacity="0.92"/>
  <!-- Simbol daur ulang besar -->
  <g>
    <circle cx="256" cy="325" r="46" fill="#fff" opacity="0.96" stroke="#43A047" stroke-width="6"/>
    <path d="M256 292l20 28a6 6 0 0 0 10-6v-32" stroke="#43A047" stroke-width="7" fill="none"/>
    <path d="M256 292l-20 28a6 6 0 0 1-10-6v-32" stroke="#43A047" stroke-width="7" fill="none"/>
    <path d="M241 320a21 21 0 0 1 30 0" stroke="#43A047" stroke-width="3.5" fill="none"/>
    <polygon points="256,282 265,297 247,297" fill="#43A047"/>
    <polygon points="238,342 230,327 247,327" fill="#43A047"/>
    <polygon points="274,342 282,327 265,327" fill="#43A047"/>
  </g>
  <!-- Sampah kertas putih -->
  <rect x="215" y="170" width="17" height="33" rx="6" fill="#fff" transform="rotate(-17 215 170)" opacity="0.86"/>
  <rect x="280" y="176" width="13" height="23" rx="5" fill="#fff" transform="rotate(13 280 176)" opacity="0.7"/>
</svg>